<?xml version="1.0" encoding="UTF-8" standalone="no"?>
<!-- Uploaded to: SVG Repo, www.svgrepo.com, Generator: SVG Repo Mixer Tools -->

<svg
   width="800px"
   height="800px"
   viewBox="0 0 24 24"
   fill="none"
   version="1.1"
   id="svg4"
   sodipodi:docname="tools.svg"
   inkscape:version="1.4 (86a8ad7, 2024-10-11)"
   xmlns:inkscape="http://www.inkscape.org/namespaces/inkscape"
   xmlns:sodipodi="http://sodipodi.sourceforge.net/DTD/sodipodi-0.dtd"
   xmlns="http://www.w3.org/2000/svg"
   xmlns:svg="http://www.w3.org/2000/svg">
  <defs
     id="defs4" />
  <sodipodi:namedview
     id="namedview4"
     pagecolor="#ffffff"
     bordercolor="#000000"
     borderopacity="0.25"
     inkscape:showpageshadow="2"
     inkscape:pageopacity="0.0"
     inkscape:pagecheckerboard="0"
     inkscape:deskcolor="#d1d1d1"
     inkscape:zoom="1.51625"
     inkscape:cx="399.67024"
     inkscape:cy="400"
     inkscape:window-width="2560"
     inkscape:window-height="1494"
     inkscape:window-x="-11"
     inkscape:window-y="-11"
     inkscape:window-maximized="1"
     inkscape:current-layer="svg4" />
  <g
     opacity="0.4"
     id="g4">
    <path
       d="M20.1702 5.3L19.6902 14.01C19.6302 14 19.5702 14 19.5002 14H4.50016C4.43016 14 4.37016 14 4.31016 14.01L3.83016 5.3C3.65016 3.53 5.04016 2 6.81016 2H17.1902C18.9602 2 20.3502 3.53 20.1702 5.3Z"
       stroke="#292D32"
       stroke-width="1.5"
       stroke-linecap="round"
       stroke-linejoin="round"
       id="path2"
       style="stroke:#b9c0c6;stroke-opacity:1" />
    <path
       d="M7.99023 2V7"
       stroke="#292D32"
       stroke-width="1.5"
       stroke-linecap="round"
       stroke-linejoin="round"
       id="path3"
       style="stroke:#b9c0c6;stroke-opacity:1" />
    <path
       d="M 12,2.0171429 V 3.9828571"
       stroke="#292D32"
       stroke-width="1.47429"
       stroke-linecap="round"
       stroke-linejoin="round"
       id="path4"
       style="stroke:#b9c0c6;stroke-opacity:1" />
  </g>
  <path
     d="M9.5 19.5V18H4.5C3.95 18 3.45 17.78 3.09 17.41C2.72 17.05 2.5 16.55 2.5 16C2.5 14.97 3.3 14.11 4.31 14.01C4.37 14 4.43 14 4.5 14H19.5C19.57 14 19.63 14 19.69 14.01C20.17 14.05 20.59 14.26 20.91 14.59C21.32 14.99 21.54 15.56 21.49 16.18C21.4 17.23 20.45 18 19.39 18H14.5V19.5C14.5 20.88 13.38 22 12 22C10.62 22 9.5 20.88 9.5 19.5Z"
     stroke="#292D32"
     stroke-width="1.5"
     stroke-linecap="round"
     stroke-linejoin="round"
     id="path1"
     style="stroke:#b9c0c6;stroke-opacity:1" />
</svg>
